# xmcd
#
# Track frame offsets:
#	150
#	16985
#	31787
#	48667
#	60352
#	75790
#	92815
#	109002
#	123770
#	139615
#	158317
#	175550
#	190587
#	214167
#
# Disc length: 3205 seconds
#
# Revision: 1
# Processed by: cddbd v1.4PL0 Copyright (c) Steve Scherf et al.
# Submitted via: audiograbber 1.82.00
#
DISCID=980c830e
DTITLE=Dean Mark - Rockin Around The Christmas Tree (Swiss)
DYEAR=1900
DGENRE=swiss
TTITLE0=Merry Christmas Everyone
TTITLE1=White Christmas
TTITLE2=The 12th Of Never
TTITLE3=Rockin Around The Christmas Tree
TTITLE4=Peace On Earth
TTITLE5=The River
TTITLE6=Sunday Father
TTITLE7=Christmas In An Igloo
TTITLE8=Santa Claus Is Coming In A Boogie Woogie Choo Choo Train
TTITLE9=If Everyday Was Like Christmas
TTITLE10=Land Of The Free
TTITLE11=The Best Christmas Of Them All
TTITLE12=Silent Night
TTITLE13=Heal The World
EXTD=
EXTT0=
EXTT1=
EXTT2=
EXTT3=
EXTT4=
EXTT5=
EXTT6=
EXTT7=
EXTT8=
EXTT9=
EXTT10=
EXTT11=
EXTT12=
EXTT13=
PLAYORDER=
